HIERARCHY
ROOT Spine
{
    OFFSET 0.0 0.0 -0.0
    CHANNELS 6 Xposition Yposition Zposition Zrotation Xrotation Yrotation
    JOINT ShoulderCenter
    {
        OFFSET 0.0 32.94481658935547 0.0
        CHANNELS 3 Zrotation Xrotation Yrotation
        JOINT LeftShoulder
        {
            OFFSET 18.95941162109375 0.0 0.0
            CHANNELS 3 Zrotation Xrotation Yrotation
            JOINT LeftElbow
            {
                OFFSET 28.856807708740234 0.0 0.0
                CHANNELS 3 Zrotation Xrotation Yrotation
                JOINT LeftHand
                {
                    OFFSET 32.404029846191406 0.0 0.0
                    CHANNELS 3 Zrotation Xrotation Yrotation
                    End Site
                    {
                        OFFSET 12.961610794067383 0.0 0.0
                    }
                }
            }
        }
        JOINT RightShoulder
        {
            OFFSET -18.95941162109375 0.0 0.0
            CHANNELS 3 Zrotation Xrotation Yrotation
            JOINT RightElbow
            {
                OFFSET -28.856807708740234 0.0 0.0
                CHANNELS 3 Zrotation Xrotation Yrotation
                JOINT RightHand
                {
                    OFFSET -32.404029846191406 0.0 0.0
                    CHANNELS 3 Zrotation Xrotation Yrotation
                    End Site
                    {
                        OFFSET -12.961610794067383 0.0 0.0
                    }
                }
            }
        }
        End Site
        {
            OFFSET 0.0 13.177925109863281 0.0
        }
    }
    JOINT LeftHip
    {
        OFFSET 15.685665158229533 -15.685665158229533 0.0
        CHANNELS 3 Zrotation Xrotation Yrotation
        JOINT LeftKnee
        {
            OFFSET 0.0 -41.18231964111328 0.0
            CHANNELS 3 Zrotation Xrotation Yrotation
            JOINT LeftFoot
            {
                OFFSET 0.0 -42.58216857910156 0.0
                CHANNELS 3 Zrotation Xrotation Yrotation
                End Site
                {
                    OFFSET 0.0 0.0 17.032867431640625
                }
            }
        }
    }
    JOINT RightHip
    {
        OFFSET -15.685665158229533 -15.685665158229533 0.0
        CHANNELS 3 Zrotation Xrotation Yrotation
        JOINT RightKnee
        {
            OFFSET 0.0 -41.18231964111328 0.0
            CHANNELS 3 Zrotation Xrotation Yrotation
            JOINT RightFoot
            {
                OFFSET 0.0 -42.58216857910156 0.0
                CHANNELS 3 Zrotation Xrotation Yrotation
                End Site
                {
                    OFFSET 0.0 0.0 17.032867431640625
                }
            }
        }
    }
}
MOTION
Frames: 7
Frame Time: 0.03333333333333333
140.5 11.5 56.099998474121094 7.859259412421314 5.208701155330018 -95.9794140660064 2.1615214236554893e-07 1.8566697066267738e-07 -0.04811684428892841 101.6762824309086 18.618695450368463 -177.43801569052158 1.0549931502241825e-06 2.88083945067378e-07 49.56065057962197 -1.590277340731758e-15 -8.827812596100317e-32 6.361109362927032e-15 -102.4410356698744 15.635695454425266 168.2549809603153 -7.593617052500465e-06 -5.66316372079773e-07 -75.80491148890286 -1.8207363479456905e-31 -6.5598940305185035e-15 -3.1805546814635168e-15 19.109314271171627 -26.175686062081343 79.5691669164842 6.394277727202886 1.4878616769724933 -36.04122150379196 -1.1862373176009802e-31 -1.5902773407317588e-15 -8.547740706433203e-15 9.021609783223191 -1.9940948311704878 31.599122572247353 5.631285831917263 18.39733914896995 22.35575643317682 3.180554681463516e-15 -2.537996121378841e-31 -9.144094709207609e-15
137.8000030517578 11.800000190734863 57.400001525878906 8.746187885377688 5.040051883916297 -98.18220010449913 5.505697258464437e-07 -1.5448690964023265e-07 -0.20178081832123956 102.3565486742257 14.805555745159413 -174.30969822643627 -4.1367879765462503e-07 -2.5648083980038127e-06 50.79826116404224 3.1805546814635168e-15 -1.2722218725854067e-14 3.531125038440127e-31 -103.06897395033391 17.31578053197462 165.81819274413078 -1.5714288952914698e-06 7.332035776959028e-06 -77.8974334205489 0.0 -5.9635400277440935e-15 0.0 19.654702922686155 -24.90166104431193 80.11867342502171 5.501850184139256 3.482434039332922 -76.0783590083884 0.0 0.0 5.466578358765419e-16 9.05937496473411 -7.2505130670210285 24.636250756797445 5.917792269334205 28.32603678083565 33.463108942061865 0.0 0.0 -1.5902773407317584e-15
135.1999969482422 12.300000190734863 58.70000076293945 9.776485106032746 4.5077689275447685 -98.42594652702431 -1.2429185234192647e-06 1.5819962084680821e-06 -2.3217050406990123 102.82399994932794 10.730481505570195 -169.84646169472944 3.1069315788968286e-06 5.6442635236944555e-06 52.64692370474464 3.1805546814635168e-15 0.0 0.0 -103.75319690968139 18.623873213977834 162.8116862918615 -9.133091670153113e-06 -2.945604306787953e-06 -80.9973705862428 1.5902773407317584e-15 6.3611093629270335e-15 -8.827812596100317e-32 17.364598854368875 -23.952940707802156 46.470927199507756 2.4347879125007337 4.726499871268187 -55.07986218870198 -6.212020862233432e-16 1.5902773407317584e-15 8.578800810744369e-15 8.083818571862032 -13.09991299172484 17.226865820497803 4.5025546428372065 37.93979260302064 45.45680473274141 6.3611093629270335e-15 -3.751820353342635e-31 -6.7586786981099735e-15
132.6999969482422 13.0 59.79999923706055 10.491476630564506 3.99281861730587 -100.66270735923355 1.3002642125426637e-07 4.023742355122926e-07 -2.638294851576885 103.84443865701607 6.225245285396911 -165.30703796293744 3.209621017686204e-07 -4.015757927037703e-06 55.136008768424816 0.0 0.0 0.0 -104.37316669283994 19.731437738941047 158.92619288466022 5.509943736308562e-06 1.0540984046673732e-06 -83.6758217469931 0.0 -3.9756933518293955e-16 0.0 15.907961424058934 -21.774336443188524 16.92126614861945 0.3481398320254232 3.467210020946593 -31.24999827126727 -9.939233379573487e-17 -2.5970493599367387e-33 2.9941940555965133e-15 6.836528620918376 -18.753550360633888 6.162451483729674 -3.473567473374893 45.95437145874714 62.61427959937536 1.6552148617688095e-32 -1.5902773407317584e-15 1.1927080055488188e-15
130.3000030517578 13.300000190734863 60.79999923706055 11.140334078405916 3.1104489935356567 -102.80519896915335 7.052680532845782e-07 -1.361628085046123e-06 -3.129147741111931 104.48201490048237 2.028495574836622 -159.71674295847592 8.918687083174615e-07 7.559398694248265e-07 57.9322735546342 8.827812596100317e-32 -6.3611093629270335e-15 1.5902773407317584e-15 -103.4778806142414 22.257322080330074 154.34442878701643 -1.319046560659471e-07 1.3242937666106862e-06 -84.56257932053511 -1.590277340731758e-15 6.361109362927033e-15 -1.590277340731758e-15 14.463809389644906 -20.41293990359058 -0.11989085775388254 -0.18605650862967799 3.1509068247628274 -23.058284142684933 7.951386703658792e-16 5.172546443027529e-33 7.454425034680117e-16 5.221336226179277 -23.67347673205935 -5.223370324424653 -14.637782048481485 49.20556169376786 79.58379391421703 -5.517382872562698e-33 1.5902773407317584e-15 3.975693351829396e-16
128.10000610351562 13.500000953674316 61.79999542236328 11.853009354030767 1.903060431994966 -105.79321656057019 -8.456351600663088e-07 1.1361349516099428e-06 -3.2407109974690576 106.21228575204069 -2.208453198710034 -153.47289907864686 2.249009255249177e-06 1.357532005483147e-06 60.902023651773234 0.0 0.0 0.0 -102.70727829283858 23.02087597624934 147.57240965832608 3.946382677537547e-06 -2.24153139192331e-06 -86.50558841787439 -2.3854160110976384e-15 6.361109362927035e-15 1.3241718894150476e-31 13.317214279985057 -20.110402661940668 -4.824323663362174 -0.09397928475869904 4.61797220752824 -30.165743864756436 -1.8276330765363937e-32 -7.951386703658792e-16 -2.6338968455869747e-15 3.646583643550648 -28.428893981907606 -16.93920245322171 -26.95354578841956 46.76609479196919 96.14006222210304 0.0 0.0 3.975693351829396e-16
126.10000610351562 13.699999809265137 62.5 12.903900456274195 1.037323568062732 -108.3793037261206 -7.246406149868944e-07 -3.8271508081046693e-07 -3.7744672985887746 108.75317053765866 -5.757567279948103 -146.57129866140997 1.2985714999078313e-06 6.899329986729917e-07 64.34110456499761 0.0 6.3611093629270335e-15 0.0 -100.74746911648087 24.00833154636077 141.7771845229385 1.2455493248812215e-06 -4.198074252394678e-06 -85.44033861714371 3.975693351829396e-15 0.0 0.0 12.354950307178019 -20.32291517514104 -7.345873495322922 -0.03937598097990444 6.251491661543775 -33.21449773714599 -1.987846675914698e-16 7.951386703658792e-16 1.987846675914698e-16 2.371649542632532 -33.23975959967817 -28.500987169104768 -34.20714296976718 41.535026150401556 107.34036006142527 -3.1805546814635168e-15 -1.3241718894150476e-31 4.770832022195275e-15
